<svg width="1098" height="313" viewBox="0 0 1098 313" fill="none" xmlns="http://www.w3.org/2000/svg">
<path d="M1097.76 302.454C1097.63 302.719 1097.42 302.973 1097.38 303.251C1096.62 308.501 1090.9 312.879 1085.77 312.995C1080.58 313.111 1076.66 311.099 1073.83 306.796C1072 304.003 1069.37 302.623 1066.05 302.563C1065.32 302.55 1064.59 302.554 1063.87 302.554C843.307 302.554 622.746 302.554 402.186 302.554C314.181 302.554 226.173 302.557 138.168 302.545C136.723 302.545 135.246 302.499 133.839 302.207C131.139 301.646 129.018 300.11 127.271 297.962C117.994 286.551 108.684 275.167 99.3868 263.774C93.3799 256.413 87.3404 249.078 81.3844 241.675C79.6012 239.458 77.4167 238.412 74.6167 238.523C73.8922 238.552 73.164 238.548 72.4377 238.524C70.8924 238.475 69.5958 238.962 68.588 240.175C67.3442 241.673 65.6536 242.245 63.7815 242.383C63.2385 242.423 62.6919 242.401 62.1472 242.401C44.0504 242.403 25.9517 242.405 7.85491 242.394C6.95243 242.394 6.04268 242.318 5.14928 242.185C1.96245 241.715 -0.0731192 238.949 0.0449115 235.873C0.173837 232.503 2.76144 230.099 6.02454 229.946C6.44763 229.926 6.87254 229.941 7.29563 229.941C25.8773 229.941 44.4589 229.957 63.0406 229.919C65.3703 229.914 67.3169 230.535 68.8295 232.347C69.5759 233.242 70.5601 233.643 71.7059 233.66C72.9152 233.678 74.1264 233.685 75.3376 233.687C79.278 233.689 82.4575 235.207 84.9598 238.287C92.9314 248.107 100.945 257.892 108.942 267.691C116.289 276.692 123.665 285.67 130.966 294.709C132.63 296.767 134.682 297.709 137.249 297.738C137.916 297.745 138.58 297.74 139.247 297.74C447.873 297.74 756.5 297.74 1065.13 297.74C1065.67 297.74 1066.22 297.756 1066.76 297.731C1069.81 297.591 1072.2 296.374 1073.76 293.62C1075.61 290.342 1078.46 288.312 1082.13 287.462C1088.14 286.068 1094.54 289.343 1096.87 295.02C1097.23 295.899 1097.47 296.827 1097.76 297.733C1097.76 299.307 1097.76 300.88 1097.76 302.454ZM1077.25 300.046C1077.15 303.718 1079.91 307.791 1084.89 307.836C1089.84 307.88 1092.62 303.988 1092.72 300.186C1092.82 295.989 1089.27 292.449 1085.03 292.405C1080.76 292.36 1077.28 295.777 1077.25 300.046Z" fill="white"/>
<path d="M585.195 282.906C731.732 282.906 878.272 282.906 1024.81 282.906C1025.29 282.906 1025.78 282.917 1026.26 282.903C1029.02 282.817 1031.09 281.172 1031.71 278.459C1032.16 276.48 1032.89 274.655 1034.1 273.022C1037.36 268.621 1043.23 266.789 1048.54 268.517C1053.78 270.224 1057.36 275.087 1057.37 280.569C1057.39 285.904 1055.07 289.941 1050.32 292.323C1045.51 294.729 1040.71 294.328 1036.51 290.974C1033.58 288.641 1030.46 287.769 1026.79 287.771C792.179 287.805 557.572 287.802 322.967 287.804C263.71 287.804 204.453 287.787 145.196 287.838C140.595 287.842 137.103 286.186 134.214 282.619C116.312 260.517 98.3382 238.472 80.3848 216.409C79.9653 215.893 79.5513 215.367 79.0828 214.896C77.8807 213.696 76.4408 212.999 74.7102 212.993C73.8023 212.99 72.8926 213.021 71.9865 212.986C70.6918 212.937 69.6077 213.358 68.7651 214.343C67.2798 216.075 65.4076 216.71 63.1324 216.705C44.3691 216.663 25.6059 216.676 6.84082 216.692C5.41174 216.694 4.07708 216.473 2.85864 215.703C0.795825 214.399 -0.219239 211.882 0.111247 209.785C0.550684 206.996 2.50817 204.951 5.12119 204.473C6.00733 204.312 6.92616 204.279 7.83045 204.279C26.1107 204.268 44.3891 204.283 62.6693 204.255C65.157 204.252 67.3088 204.804 68.9558 206.834C69.7657 207.833 70.9641 208.1 72.2316 208.103C73.6226 208.107 75.0353 208.022 76.3972 208.234C79.3225 208.692 81.6922 210.193 83.5571 212.498C86.1447 215.697 88.7741 218.864 91.3344 222.085C94.5666 226.149 98.7177 228.16 103.935 228.087C108.957 228.016 113.982 228.109 119.006 228.06C123.235 228.018 126.591 229.616 129.23 232.944C133.252 238.02 137.435 242.966 141.427 248.063C144.023 251.377 147.068 252.381 151.161 251.172C158.859 248.897 166.277 253.589 167.786 261.473C167.922 262.182 167.913 262.915 167.974 263.638C168.109 265.227 168.911 266.055 170.493 266.184C171.094 266.233 171.702 266.204 172.309 266.204C186.049 266.206 199.788 266.206 213.529 266.206C214.074 266.206 214.624 266.169 215.161 266.231C216.345 266.367 217.184 267.217 217.317 268.341C217.447 269.447 216.817 270.522 215.681 270.858C215.001 271.059 214.253 271.087 213.536 271.089C199.494 271.101 185.45 271.138 171.408 271.07C168.22 271.054 165.527 271.975 163.053 273.969C158.659 277.513 152.667 277.818 147.944 274.898C143.168 271.946 140.764 266.365 142.095 260.771C142.64 258.479 142.218 256.714 140.728 254.916C135.629 248.768 130.591 242.565 125.629 236.307C123.784 233.981 121.581 232.875 118.601 232.939C113.7 233.044 108.796 232.968 103.893 232.968C103.651 232.968 103.395 232.919 103.168 232.979C102.616 233.128 101.883 233.168 101.579 233.544C101.071 234.172 101.67 234.758 102.093 235.28C107.67 242.134 113.241 248.991 118.816 255.846C125.231 263.734 131.69 271.586 138.04 279.525C139.936 281.895 142.157 282.95 145.216 282.948C291.876 282.901 438.535 282.906 585.195 282.906ZM154.788 255.902C150.53 255.933 146.918 259.576 146.967 263.791C147.016 268.003 150.709 271.626 154.915 271.586C159.162 271.546 162.712 267.931 162.696 263.66C162.679 259.385 159.095 255.87 154.788 255.902ZM1044.56 288.506C1048.81 288.479 1052.27 284.949 1052.19 280.713C1052.11 276.46 1048.56 272.973 1044.37 273.042C1040.19 273.111 1036.65 276.74 1036.71 280.901C1036.77 285.145 1040.27 288.534 1044.56 288.506Z" fill="white"/>
<path d="M768.39 217.273C768.126 217.78 767.845 218.278 767.605 218.795C766.608 220.951 765.392 222.95 763.73 224.675C759.913 228.634 755.116 229.865 749.834 229.629C739.51 229.169 732.541 222.225 730.791 211.922C729.44 203.972 730.017 196.082 733.242 188.594C736.24 181.637 740.968 176.189 748.043 173.093C752.434 171.172 757.037 170.818 761.726 171.728C765.341 172.429 768.037 174.372 769.574 177.793C769.67 178.007 769.813 178.201 769.946 178.398C769.975 178.439 770.053 178.448 770.349 178.577C770.805 176.634 770.761 174.655 771.128 172.785C772.546 172.36 784.082 172.3 786.092 172.723C786.054 173.578 786.054 174.468 785.969 175.352C785.266 182.756 784.5 190.152 783.855 197.56C783.521 201.414 783.285 205.283 783.225 209.149C783.198 210.932 783.505 212.779 783.999 214.501C784.845 217.457 787.002 218.586 790.011 217.996C792.201 217.566 793.881 216.349 795.275 214.682C797.167 212.418 798.424 209.796 799.245 206.994C801.462 199.425 801.965 191.717 800.136 184.041C797.325 172.242 790.026 164.168 778.548 160.351C767.033 156.522 755.301 156.533 744.135 161.459C728.69 168.274 719.625 180.284 717.381 197.159C716.5 203.772 716.921 210.353 718.984 216.716C722.91 228.832 731.363 236.356 743.362 240.057C750.987 242.409 758.822 242.67 766.719 242.031C773.705 241.465 780.447 239.914 786.922 237.217C787.191 237.105 787.491 237.068 787.912 236.961C787.979 237.517 788.079 237.974 788.081 238.434C788.095 241.521 788.039 244.608 788.115 247.693C788.143 248.819 787.683 249.287 786.686 249.64C781.99 251.303 777.159 252.365 772.227 252.983C766.512 253.698 760.772 253.921 755.021 253.723C743.507 253.328 732.628 250.713 722.908 244.256C710.442 235.975 703.433 224.379 701.899 209.478C700.987 200.635 701.512 191.893 704.679 183.551C711.403 165.844 724.09 154.388 742.167 148.973C750.538 146.465 759.158 146.013 767.863 146.631C775.226 147.152 782.37 148.554 789.141 151.523C798.233 155.508 805.736 161.414 810.866 170.059C814.038 175.405 815.691 181.227 816.265 187.399C816.882 194.045 816.428 200.591 814.356 206.941C811.317 216.257 805.509 223.275 796.447 227.259C790.89 229.703 785.019 230.455 779.06 228.995C774.213 227.807 770.767 224.889 769.298 219.959C769.043 219.108 768.918 218.218 768.733 217.346C768.617 217.319 768.502 217.295 768.39 217.273ZM769.192 194.413C769.109 193.564 769.1 191.909 768.764 190.326C766.881 181.439 757.921 180.749 753.222 184.873C752.054 185.897 750.992 187.121 750.16 188.43C746.454 194.277 745.361 200.762 745.866 207.559C746.018 209.612 746.54 211.619 747.575 213.442C749.093 216.115 751.226 217.971 754.4 218.243C757.956 218.548 760.923 217.272 763.298 214.624C764.981 212.75 766.107 210.549 766.966 208.203C768.506 204.005 768.993 199.629 769.192 194.413Z" fill="white"/>
<path d="M294.532 204.725C287.993 204.725 281.722 204.725 275.499 204.725C275.099 203.127 275.052 190.123 275.417 188.187C289.025 188.187 302.66 188.187 316.395 188.187C316.395 203.897 316.395 219.491 316.395 235.277C315.413 235.778 314.362 236.364 313.272 236.865C306.559 239.952 299.484 241.694 292.155 242.477C286.248 243.107 280.334 243.33 274.402 242.825C265.729 242.086 257.471 240.002 250.035 235.293C241.063 229.611 235.04 221.678 232.269 211.412C229.43 200.9 229.307 190.301 232.595 179.902C237.446 164.568 247.977 154.63 262.976 149.286C269.181 147.076 275.649 146.192 282.214 146.023C291.026 145.798 299.733 146.579 308.26 148.928C309.422 149.248 310.563 149.647 311.663 149.994C312.048 151.498 312.099 167.439 311.723 169.39C311.334 169.262 310.942 169.184 310.595 169.012C303.421 165.462 295.774 163.929 287.83 163.579C283.394 163.383 278.976 163.459 274.703 164.75C263.385 168.171 256.408 175.698 254.028 187.289C252.617 194.162 252.875 201.058 255.185 207.706C258.8 218.106 266.387 223.728 277.175 225.193C281.958 225.843 286.713 225.636 291.402 224.449C294.674 223.619 294.663 223.588 294.663 220.225C294.661 215.867 294.669 211.509 294.659 207.151C294.659 206.442 294.587 205.732 294.532 204.725Z" fill="white"/>
<path d="M542.476 252.174C544.268 252.996 545.785 253.724 547.328 254.393C553.598 257.115 560.15 258.337 566.972 257.814C572.34 257.402 577.29 255.862 581.284 251.985C584.511 248.854 586.265 245.003 586.752 240.61C587.032 238.095 586.934 235.537 586.986 232.996C586.992 232.718 586.861 232.437 586.73 231.894C586.244 232.473 585.893 232.855 585.583 233.267C581.223 239.061 575.427 242.206 568.212 242.909C563.623 243.356 559.126 243.027 554.78 241.544C546.389 238.676 541.15 232.638 538.172 224.483C535.754 217.861 535.574 210.982 536.162 204.062C536.602 198.901 537.795 193.908 540.241 189.297C545.899 178.636 554.713 173.052 566.858 172.855C569.843 172.805 572.77 173.083 575.634 173.973C579.567 175.195 582.792 177.44 585.376 180.628C585.717 181.05 586.066 181.467 586.418 181.881C586.449 181.918 586.531 181.912 586.712 181.954C587.277 180.85 586.939 179.644 586.997 178.496C587.059 177.3 587.012 176.096 587.012 174.712C587.763 174.621 588.339 174.494 588.915 174.494C594.785 174.48 600.656 174.48 606.527 174.489C606.999 174.489 607.473 174.581 608.13 174.65C608.195 175.335 608.308 175.974 608.308 176.612C608.317 196.281 608.361 215.951 608.288 235.618C608.264 241.914 607.022 247.999 604.103 253.655C599.719 262.143 592.683 267.405 583.747 270.341C579.236 271.823 574.577 272.589 569.859 272.842C562.959 273.212 556.062 273.074 549.284 271.494C547.522 271.084 545.79 270.523 544.081 269.926C542.353 269.321 542.354 269.265 542.351 267.461C542.34 262.922 542.345 258.384 542.353 253.844C542.347 253.379 542.418 252.907 542.476 252.174ZM587.418 207.024C587.222 204.683 587.268 202.29 586.788 200.009C584.744 190.276 574.293 185.477 565.813 190.309C562.082 192.435 559.968 195.842 558.795 199.847C557.362 204.739 557.168 209.737 558.091 214.738C558.773 218.444 560.377 221.709 563.233 224.295C567.998 228.609 578.895 229.443 584.241 220.786C585.21 219.217 585.875 217.425 586.452 215.66C587.368 212.867 587.293 209.942 587.418 207.024Z" fill="white"/>
<path d="M833.609 147.613C852.364 147.613 870.914 147.613 889.431 147.613C889.901 149.242 889.908 162.882 889.405 164.693C878.194 164.693 866.914 164.693 855.514 164.693C855.514 171.737 855.514 178.546 855.514 185.574C856.322 185.632 857.136 185.742 857.949 185.742C866.905 185.753 875.863 185.746 884.818 185.753C885.586 185.753 886.353 185.831 887.232 185.88C887.232 191.459 887.232 196.876 887.232 202.503C886.453 202.566 885.697 202.683 884.944 202.683C875.926 202.694 866.91 202.686 857.893 202.694C857.123 202.694 856.351 202.766 855.49 202.81C855.49 210.028 855.49 217.083 855.49 224.375C859.547 224.504 863.52 224.419 867.488 224.433C871.543 224.45 875.597 224.437 879.652 224.437C883.634 224.437 887.617 224.437 891.541 224.437C892.051 225.98 892.131 239.291 891.697 241.156C890.271 241.515 835.454 241.557 833.611 241.176C833.609 210.068 833.609 178.935 833.609 147.613Z" fill="white"/>
<path d="M962.06 202.712C951.582 202.712 941.146 202.712 930.767 202.712C930.322 204.714 930.347 222.718 930.781 224.399C942.71 224.399 954.676 224.399 966.592 224.399C967.068 225.774 967.218 238.347 966.841 241.109C965.577 241.499 911.493 241.647 908.88 241.267C908.535 239.947 908.456 149.747 908.817 147.623C927.395 147.623 945.991 147.623 964.705 147.623C964.705 153.281 964.705 158.821 964.705 164.634C962.839 164.652 960.992 164.677 959.143 164.684C957.268 164.694 955.392 164.686 953.516 164.686C951.58 164.686 949.643 164.686 947.707 164.686C945.831 164.686 943.955 164.686 942.08 164.686C940.204 164.686 938.328 164.686 936.452 164.686C934.584 164.686 932.715 164.686 930.899 164.686C930.364 166.115 930.17 181.904 930.622 185.614C931.33 185.658 932.087 185.745 932.842 185.747C941.796 185.756 950.752 185.75 959.708 185.758C960.483 185.758 961.257 185.821 961.978 185.854C962.497 187.299 962.593 200.401 962.06 202.712Z" fill="white"/>
<path d="M983.897 147.598C1002.6 147.598 1021.15 147.598 1039.82 147.598C1039.82 153.283 1039.82 158.867 1039.82 164.649C1028.43 164.649 1017.14 164.649 1005.92 164.649C1005.42 166.105 1005.3 183.111 1005.73 185.607C1006.44 185.649 1007.21 185.735 1007.98 185.735C1016.93 185.744 1025.89 185.742 1034.84 185.742C1035.61 185.742 1036.38 185.742 1037.09 185.742C1037.54 187.338 1037.6 200.51 1037.19 202.539C1036.48 202.584 1035.71 202.673 1034.95 202.673C1026 202.682 1017.04 202.675 1008.09 202.684C1007.32 202.684 1006.54 202.762 1005.82 202.802C1005.36 204.6 1005.39 222.786 1005.88 224.411C1017.83 224.411 1029.85 224.411 1041.99 224.411C1041.99 230.127 1041.99 235.651 1041.99 241.3C1022.63 241.3 1003.36 241.3 984.086 241.3C984.039 241.253 983.995 241.211 983.954 241.168C983.914 241.124 983.854 241.081 983.845 241.03C983.799 240.732 983.734 240.432 983.734 240.134C983.732 209.579 983.736 179.025 983.745 148.469C983.743 148.233 983.823 148.001 983.897 147.598Z" fill="white"/>
<path d="M372.402 197.838C373.012 193.282 370.33 189.203 366.711 187.84C364.281 186.924 361.774 186.676 359.222 186.734C351.685 186.906 344.694 189.018 338.18 192.775C337.815 192.986 337.45 193.202 337.074 193.392C336.98 193.44 336.842 193.4 336.591 193.4C336.541 192.953 336.444 192.499 336.442 192.043C336.432 188.048 336.488 184.053 336.408 180.06C336.383 178.746 336.889 178.114 338.062 177.658C343.848 175.408 349.853 174.063 355.987 173.274C360.504 172.693 365.037 172.655 369.562 173.238C372.997 173.681 376.335 174.493 379.475 176.004C386.11 179.196 390.025 184.573 391.581 191.631C392.253 194.68 392.632 197.852 392.661 200.974C392.779 213.743 392.709 226.512 392.709 239.281C392.709 239.928 392.709 240.572 392.709 241.324C385.897 241.324 379.335 241.324 372.52 241.324C372.52 238.241 372.52 235.259 372.52 232.14C371.536 232.288 371.358 232.942 371.04 233.385C367.448 238.384 362.678 241.557 356.598 242.626C351.443 243.534 346.323 243.351 341.423 241.379C334.218 238.481 330.412 232.988 329.706 225.315C329.439 222.414 329.54 219.508 330.247 216.663C331.77 210.54 335.607 206.365 341.225 203.701C344.87 201.974 348.736 201.026 352.709 200.502C358.703 199.71 364.704 198.978 370.7 198.208C371.289 198.13 371.861 197.958 372.402 197.838ZM372.346 209.797C371.957 209.797 371.543 209.753 371.14 209.804C366.998 210.313 362.841 210.73 358.727 211.406C356.909 211.704 355.07 212.319 353.43 213.164C350.243 214.805 348.934 217.682 349.248 221.17C349.562 224.662 351.61 227.017 354.91 227.996C359.048 229.223 363.094 228.769 366.702 226.254C371.565 222.862 373.444 217.395 372.346 209.797Z" fill="white"/>
<path d="M502.24 197.836C502.413 191.379 498.83 187.419 492.462 186.89C485.046 186.275 478.033 187.822 471.352 190.998C469.724 191.771 468.151 192.663 466.544 193.505C466.139 192.202 466.003 181.851 466.352 178.348C467.472 177.885 468.661 177.31 469.905 176.894C477.995 174.194 486.273 172.614 494.842 172.872C498.116 172.97 501.343 173.405 504.51 174.268C514.049 176.867 519.681 183.119 521.594 192.725C522.098 195.26 522.371 197.882 522.387 200.466C522.465 213.475 522.423 226.485 522.423 239.494C522.423 240.032 522.423 240.567 522.423 241.063C521 241.508 504.628 241.611 502.251 241.194C502.251 238.25 502.251 235.26 502.251 232.154C501.294 232.26 501.125 232.917 500.804 233.362C497.208 238.345 492.462 241.537 486.377 242.621C481.596 243.473 476.858 243.291 472.22 241.775C464.83 239.358 459.969 233.131 459.42 225.358C459.228 222.637 459.272 219.915 459.867 217.232C461.265 210.934 465.044 206.567 470.779 203.798C474.519 201.991 478.503 201.018 482.602 200.486C488.596 199.707 494.595 198.966 500.591 198.196C501.123 198.125 501.643 197.969 502.24 197.836ZM502.315 209.788C501.723 209.788 501.363 209.75 501.014 209.794C496.814 210.315 492.596 210.733 488.425 211.43C486.553 211.742 484.657 212.4 482.979 213.291C479.949 214.898 478.741 217.715 478.994 221.045C479.266 224.628 481.341 227.021 484.715 228.018C490.176 229.63 496.916 228.11 500.49 221.826C502.607 218.098 502.485 214.076 502.315 209.788Z" fill="white"/>
<path d="M643.723 213.775C644.117 218.591 645.66 222.437 649.432 225.146C652.374 227.26 655.76 228.132 659.297 228.418C667.307 229.069 674.977 227.866 682.125 224.006C682.322 223.899 682.557 223.855 682.96 223.721C683.031 224.36 683.134 224.872 683.136 225.384C683.149 229.138 683.096 232.891 683.165 236.643C683.187 237.883 682.678 238.46 681.592 238.932C677.454 240.735 673.132 241.849 668.678 242.421C663.327 243.107 657.957 243.372 652.566 242.838C647.458 242.333 642.552 241.137 638.026 238.644C631.785 235.206 627.3 230.18 624.945 223.45C621.573 213.813 621.413 204.002 624.989 194.463C629.621 182.105 638.96 175.237 651.91 173.227C656.799 172.468 661.705 172.669 666.524 173.744C677.874 176.276 684.954 183.316 688.028 194.471C689.048 198.177 689.23 201.983 689.301 205.794C689.35 208.384 689.31 210.975 689.31 213.777C681.583 213.777 674.037 213.777 666.49 213.777C658.994 213.775 651.504 213.775 643.723 213.775ZM669.219 201.133C669.584 198.896 669.225 196.036 668.339 193.683C667.461 191.351 666.1 189.403 663.882 188.168C660.283 186.161 654.262 185.606 649.9 189.196C646.483 192.008 644.587 195.691 643.748 199.973C643.683 200.309 643.739 200.668 643.739 201.133C652.286 201.133 660.714 201.133 669.219 201.133Z" fill="white"/>
<path d="M193.814 35.7117C193.814 45.2123 193.781 54.713 193.838 64.2136C193.85 66.478 193.269 68.3592 191.513 69.8537C190.591 70.6382 190.199 71.7204 190.19 72.9243C190.177 74.5586 190.157 76.1929 190.193 77.8254C190.235 79.7502 191.065 81.2755 192.523 82.5448C200.507 89.4996 208.472 96.478 216.434 103.458C221.711 108.085 226.999 112.701 232.23 117.379C233.485 118.501 234.607 119.796 235.648 121.123C236.267 121.911 236.732 122.877 237.051 123.834C237.7 125.783 236.937 127.678 235.088 128.57C234.077 129.057 232.926 129.349 231.805 129.489C230.311 129.676 228.787 129.676 227.277 129.678C212.269 129.688 197.262 129.685 182.254 129.685C181.65 129.685 181.043 129.672 180.438 129.701C178.299 129.801 177.206 130.589 176.598 132.625C175.556 136.104 173.493 138.721 170.304 140.473C168.561 141.43 167.295 142.874 167.232 144.898C167.032 151.303 166.683 157.726 167.548 164.105C168.263 169.38 170.471 174.061 173.798 178.196C182.405 188.899 191.027 199.589 199.679 210.255C200.7 211.513 201.838 212.721 203.106 213.723C205.216 215.394 207.76 215.968 210.418 216.019C211.871 216.046 213.324 215.993 214.774 216.037C216.316 216.082 217.277 216.961 217.34 218.287C217.402 219.58 216.46 220.753 214.994 220.762C212.16 220.778 209.283 220.858 206.5 220.426C202.327 219.777 199.071 217.397 196.436 214.114C189.921 205.999 183.375 197.909 176.841 189.81C174.639 187.079 172.434 184.348 170.23 181.617C164.9 175.016 162.245 167.47 162.24 158.988C162.238 154.933 162.176 150.878 162.26 146.825C162.322 143.8 161.139 141.724 158.476 140.17C150.097 135.283 150.201 123.349 158.577 118.663C163.593 115.857 170.055 116.821 173.791 121.243C176.035 123.899 178.699 124.902 182.053 124.891C197.302 124.842 212.552 124.871 227.801 124.862C228.582 124.862 229.383 124.836 230.142 124.673C231.261 124.432 231.495 123.711 230.705 122.852C229.683 121.74 228.602 120.673 227.467 119.676C214.916 108.663 202.381 97.6293 189.765 86.6905C186.696 84.0284 185.147 80.8888 185.354 76.843C185.421 75.5156 185.363 74.1809 185.339 72.8499C185.318 71.6478 184.931 70.5819 183.987 69.7956C182.198 68.3102 181.715 66.3618 181.719 64.1265C181.748 46.5779 181.737 29.0293 181.737 11.4789C181.737 9.96627 181.811 8.4482 181.72 6.94103C181.435 2.23066 184.838 -0.0482542 187.891 0.000774318C191.473 0.0588822 193.814 2.80993 193.818 7.02456C193.819 16.5888 193.814 26.1511 193.814 35.7117ZM164.601 121.359C160.433 121.281 156.456 124.664 156.436 129.57C156.42 133.943 160.253 137.644 164.613 137.635C169.088 137.626 172.812 133.852 172.765 129.376C172.719 124.965 169.026 121.341 164.601 121.359Z" fill="white"/>
<path d="M35.1098 178.675C44.4306 178.675 53.7496 178.709 63.0685 178.649C65.3347 178.635 67.2268 179.229 68.7231 180.959C69.6111 181.987 70.7333 182.381 72.1024 182.377C86.4459 182.352 100.789 182.345 115.131 182.377C117.159 182.383 118.367 181.46 119.224 179.699C121.125 175.791 124.197 173.342 128.568 172.777C133.685 172.118 137.653 174.081 140.544 178.303C140.816 178.7 141.011 179.154 141.29 179.546C142.518 181.272 144.143 182.334 146.311 182.35C150.535 182.385 153.794 184.141 156.443 187.445C168.021 201.894 179.703 216.26 191.284 230.707C193.144 233.026 195.317 234.141 198.301 234.073C203.322 233.959 208.346 234.033 213.369 234.048C214.09 234.05 214.832 234.07 215.53 234.233C216.674 234.5 217.389 235.541 217.322 236.643C217.247 237.867 216.394 238.735 215.114 238.866C214.754 238.902 214.387 238.887 214.026 238.887C208.459 238.889 202.891 238.862 197.322 238.896C193.481 238.92 190.416 237.413 188.023 234.447C176.623 220.322 165.219 206.198 153.816 192.072C153.131 191.224 152.474 190.353 151.744 189.545C149.846 187.444 146.734 186.677 144.097 187.647C142.607 188.195 141.612 189.27 140.843 190.649C139.207 193.589 136.747 195.522 133.493 196.434C128.312 197.885 122.649 195.797 119.981 191.13C118.372 188.317 116.206 187.202 113.03 187.22C99.7161 187.3 86.4023 187.273 73.0884 187.231C71.1618 187.226 69.5548 187.6 68.2655 189.178C67.363 190.282 66.0665 190.861 64.6066 190.959C63.8838 191.008 63.1575 191.057 62.433 191.057C44.1564 191.063 25.8798 191.066 7.60322 191.057C6.75885 191.057 5.89812 191.045 5.07373 190.892C1.63813 190.253 0.0256573 187.538 0.000235298 184.704C-0.0288184 181.531 2.63686 178.878 5.69476 178.682C6.2377 178.648 6.78427 178.669 7.32903 178.669C16.5899 178.675 25.8489 178.675 35.1098 178.675ZM130.139 192.528C134.553 192.555 138.014 189.185 138.06 184.816C138.103 180.502 134.588 176.941 130.27 176.928C125.955 176.915 122.443 180.442 122.454 184.778C122.467 189.085 125.855 192.503 130.139 192.528Z" fill="white"/>
<path d="M410.02 241.244C410.02 219.036 410.02 196.924 410.02 174.846C411.672 174.369 429.407 174.351 431.252 174.85C431.252 176.768 431.252 178.747 431.252 180.726C431.252 182.646 431.252 184.565 431.252 186.486C431.361 186.519 431.468 186.552 431.577 186.584C431.784 186.274 432.013 185.976 432.195 185.653C433.174 183.92 433.992 182.074 435.142 180.463C438.547 175.687 443.375 173.525 449.139 173.298C451.132 173.219 453.126 173.276 455.149 174.053C455.149 180.192 455.149 186.337 455.149 192.673C454.597 192.499 454.103 192.361 453.62 192.188C450.132 190.939 446.564 190.534 442.914 191.267C438.792 192.095 435.817 194.5 433.807 198.128C431.913 201.547 431.263 205.279 431.258 209.139C431.241 219.001 431.252 228.863 431.252 238.723C431.252 239.506 431.252 240.289 431.252 241.033C429.918 241.509 413.09 241.671 410.02 241.244Z" fill="white"/>
<path d="M243.921 35.5269C243.921 45.0856 243.885 54.6444 243.948 64.2031C243.963 66.4712 243.416 68.3597 241.642 69.8414C240.812 70.5351 240.38 71.5066 240.344 72.5562C240.28 74.4882 240.233 76.433 240.375 78.3579C240.556 80.8166 241.722 82.8013 243.605 84.432C249.185 89.2622 254.718 94.1469 260.271 99.008C263.32 101.677 266.401 104.314 269.416 107.021C272.101 109.435 275.118 110.225 278.646 109.375C285.593 107.704 291.778 111.601 293.928 117.345C296.543 124.334 292.813 132.053 285.751 134.278C278.629 136.52 271.163 132.418 269.281 125.231C268.768 123.263 268.773 121.274 269.114 119.291C269.735 115.667 268.455 112.765 265.802 110.384C263.821 108.607 261.798 106.878 259.794 105.127C253.554 99.6762 247.331 94.205 241.067 88.781C238.584 86.6328 236.549 84.2159 235.87 80.9164C235.628 79.7397 235.543 78.5231 235.487 77.321C235.421 75.9319 235.454 74.5391 235.468 73.1481C235.481 71.7408 235.049 70.5587 233.939 69.6235C232.514 68.4214 231.886 66.8234 231.848 64.9785C231.838 64.5554 231.838 64.1323 231.838 63.7074C231.837 44.8314 231.838 25.9554 231.833 7.07945C231.833 5.61404 231.909 4.1795 232.723 2.8866C234.17 0.584077 236.865 -0.483652 239.492 0.222722C242.147 0.936359 243.843 3.12448 243.919 5.94272C243.934 6.48748 243.925 7.03224 243.925 7.577C243.921 16.8924 243.921 26.2097 243.921 35.5269ZM281.862 129.649C286.105 129.625 289.568 126.115 289.528 121.875C289.488 117.613 286.005 114.185 281.742 114.214C277.529 114.243 274.01 117.799 274.043 121.997C274.077 126.206 277.618 129.673 281.862 129.649Z" fill="white"/>
<path d="M218.871 36.1769C218.871 45.8591 218.887 55.5413 218.86 65.2235C218.851 68.2833 219.625 70.9998 221.435 73.5402C223.888 76.9777 224.079 80.7801 222.172 84.5317C220.275 88.2633 216.99 90.2118 212.895 90.1754C204.395 90.101 199.881 81.3194 203.6 74.5262C203.803 74.1558 204.021 73.789 204.277 73.4531C206.122 71.0434 206.814 68.3087 206.799 65.2998C206.758 56.5854 206.785 47.8711 206.785 39.1567C206.785 28.5665 206.781 17.9764 206.788 7.38621C206.788 6.60176 206.785 5.80641 206.899 5.03466C207.346 2.03121 209.961 -0.0806509 213.055 0.0101427C215.964 0.0954887 218.515 2.42707 218.817 5.31612C218.891 6.03521 218.869 6.767 218.869 7.49154C218.871 17.0539 218.871 26.6163 218.871 36.1769Z" fill="white"/>
<path d="M198.022 253.664C193.001 253.664 187.981 253.64 182.96 253.673C178.81 253.7 175.509 252.121 172.889 248.868C164.048 237.895 155.128 226.983 146.278 216.017C144.594 213.931 142.584 212.91 139.864 212.963C134.603 213.063 129.337 213.048 124.077 212.967C121.754 212.93 120.028 213.746 118.635 215.594C114.13 221.572 105.397 221.478 100.87 216.303C97.7597 212.747 97.1115 207.677 99.2796 203.432C101.393 199.288 105.853 196.831 110.509 197.247C115.159 197.661 119.076 200.859 120.433 205.344C120.503 205.576 120.576 205.807 120.647 206.037C121.152 207.688 121.616 208.075 123.361 208.088C126.81 208.113 130.258 208.097 133.706 208.097C135.884 208.097 138.063 208.138 140.24 208.088C144.22 207.995 147.378 209.575 149.858 212.638C155.112 219.124 160.376 225.602 165.636 232.082C169.334 236.637 173.065 241.165 176.715 245.758C178.393 247.87 180.472 248.805 183.154 248.792C193.256 248.745 203.359 248.772 213.461 248.774C214.005 248.774 214.556 248.739 215.091 248.807C216.419 248.972 217.343 249.996 217.339 251.227C217.336 252.495 216.462 253.45 215.082 253.635C214.606 253.699 214.116 253.664 213.631 253.664C208.427 253.664 203.225 253.664 198.022 253.664Z" fill="white"/>
</svg>
