<?xml version="1.0" encoding="utf-8"?>
<!-- Generator: Adobe Illustrator 22.0.1, SVG Export Plug-In . SVG Version: 6.00 Build 0)  -->
<svg version="1.1" xmlns="http://www.w3.org/2000/svg" xmlns:xlink="http://www.w3.org/1999/xlink" x="0px" y="0px"
	 viewBox="0 0 1002 563" style="enable-background:new 0 0 1002 563;" xml:space="preserve">
<style type="text/css">
	.st0{display:none;}
	.st1{fill:#D8392B;}
</style>
<g id="Layer_2" class="st0">
</g>
<g id="Layer_1">
	<g>
		<path class="st1" d="M120.7,117.8c2.1,0.6,4.2,1,6.3,1.7c9.7,3.5,16.5,9.9,20.4,19.5c1.8,4.5,2.6,9.2,2.3,14.1
			c-0.4,6.2-2.3,11.8-5.7,16.9c-3.7,5.5-7.4,10.9-11,16.4c-0.5,0.8-1.1,1.1-2.1,1.1c-9.8,0-19.6,0-29.3,0c-1,0-1.6-0.4-2.2-1.2
			c-3.9-5.8-7.8-11.6-11.6-17.4c-2.3-3.5-3.7-7.3-4.4-11.4c-0.1-0.5-0.3-0.9-0.5-1.4c0-3.1,0-6.2,0-9.2c0.1-0.4,0.4-0.7,0.4-1.1
			c0.6-4.3,2.1-8.2,4.4-11.9c4.7-7.5,11.3-12.5,19.9-14.9c1.3-0.4,2.6-0.7,3.9-1.1C114.5,117.8,117.6,117.8,120.7,117.8z"/>
		<path class="st1" d="M841.3,270.9c1.7-0.5,2.4-1.8,3-3.1c3.8-8.2,7.6-16.4,11.4-24.6c4-8.5,7.9-17,11.9-25.5
			c4.8-10.3,9.5-20.5,14.3-30.8c2.5-5.4,5.1-10.8,7.7-16.2c1.6-3.1,4.2-4.7,7.8-4.6c4.5,0.1,9-0.2,13.5-0.2c1.3,0,2.7,0.1,4,0.2
			c2.8,0.3,4.4,2.1,4.5,5.2c0.1,2.4,0,4.8,0,7.2c0,41.6,0,83.2,0,124.9c0,1.6-0.2,3.3-0.5,4.8c-0.3,1.7-1.5,2.8-3.1,3
			c-3.2,0.3-6.4,0.5-9.6,0.6c-3.3,0.1-6.6,0-9.8,0c-3.6,0-4.9-1.1-5.2-4.8c-0.2-2.6,0-5.3,0-7.9c0-17.2,0.1-34.4,0.1-51.5
			c0-2.7,0.1-5.5,0-8.2c0-1.2-0.4-2.5-0.6-3.7c-0.2-0.1-0.4-0.1-0.6-0.2c-1,1.6-2.1,3.1-2.9,4.7c-3.6,7.1-7.1,14.2-10.6,21.4
			c-6.5,13.1-13,26.2-19.5,39.3c-1.8,3.7-4.7,5.5-8.9,5.3c-4-0.2-8,0-12,0.1c-4.9,0.2-8.1-2.1-10.3-6.2
			c-5.8-11.3-11.5-22.6-17.3-33.8c-5-9.8-10.1-19.6-15.2-29.4c-0.4-0.9-1.1-1.7-1.7-2.4c-0.6-0.6-1.3-0.6-1.5,0.4
			c-0.2,0.7-0.3,1.4-0.3,2c0,4,0.1,7.9,0.1,11.9c0,18.5,0,37,0,55.4c0,1.4-0.1,2.8-0.4,4.1c-0.3,1.7-1.3,3-3,3.3
			c-1.5,0.3-3.1,0.6-4.7,0.6c-4.6,0.1-9.2,0-13.9,0c-4.6,0-6.6-2-6.6-6.6c0-30.9,0-61.8,0-92.7c0-13.6,0-27.1,0-40.7
			c0-4.5,2.4-6.5,6.9-6.4c3,0.1,6,0,9-0.3c6.7-0.7,11.8,1.7,15.3,7.3c2.2,3.6,4,7.5,5.9,11.3c3.1,6.4,6.1,12.9,9.2,19.3
			c6.2,12.7,12.4,25.3,18.6,38c4,8.1,8,16.2,12,24.3C839.3,267.4,840.3,269.1,841.3,270.9z"/>
		<path class="st1" d="M173.3,195.7c0-8.2,0-16.5,0-24.7c0-2.6,0.9-4.1,2.8-4.7c0.6-0.2,1.3-0.2,1.9-0.2c10.1,0.3,20.2,0.7,30.3,1
			c7.9,0.2,15.8,0.9,23.6,2.6c11.3,2.4,21.9,6.6,30.9,14.1c7.3,6.1,12.6,13.5,16.1,22.3c3.7,9.3,5.4,19,5.4,29
			c0,5.8-0.1,11.7-0.6,17.5c-0.7,7.3-2.8,14.3-5.8,20.9c-4.6,10-11.5,18.1-20.7,24.2c-5.5,3.7-11.4,6.6-17.8,8.4
			c-5.6,1.6-11.3,3-17,4.1c-4.5,0.8-9.2,1-13.7,1.3c-5.7,0.3-11.4,0.6-17.1,0.6c-4.4,0-8.7-0.3-13.1-0.4c-3.4-0.1-5.1-3.1-5.1-6
			c0-6.1,0-12.1,0-18.2c0-9.8,0-19.7,0-29.5c0-3.7,1.3-5.1,5-5.1c6.3,0,12.5,0,18.8,0c3,0,4.7,1.4,4.9,4.4c0.2,2.4,0,4.9,0,7.3
			c0,5.6,0,11.1,0.1,16.7c0,2.1,0.8,2.9,2.8,2.8c4.1-0.1,8.1-0.2,12.2-0.6c2.9-0.3,6-0.5,8.7-1.5c4-1.3,8.1-2.8,11.7-4.9
			c9.6-5.4,14.9-14,16.9-24.8c1.5-8,1.8-16.1,0.4-24.1c-1.7-10-5.9-18.9-14-25.4c-4.5-3.6-9.6-6-15.2-7.5c-5.8-1.5-11.7-1.9-17.7-2
			c-3.8,0-5.6,1-5.8,5.6C202,206.1,202,213,202,220c0,3.6-1.3,5.1-4.9,5.1c-6.2,0-12.4,0-18.6,0c-3.4,0-5.2-1.5-5.1-5.1
			C173.5,211.9,173.4,203.8,173.3,195.7C173.4,195.7,173.3,195.7,173.3,195.7z"/>
		<path class="st1" d="M289.6,238c0-21.4,0-42.7,0-64.1c0-1.6,0.2-3.2,0.5-4.7c0.4-2.1,1.8-3.2,3.9-3.3c2.4-0.1,4.9-0.2,7.3-0.2
			c15.8,0,31.7,0,47.5,0c1.5,0,3,0,4.5,0.1c4.5,0.3,5.8,2.6,5.9,6.5c0.2,4.9,0.2,9.7,0.1,14.6c0,3.5-1.5,6.1-5.8,6.2
			c-1.5,0-3.1,0-4.6,0c-8.3,0-16.7,0-25,0c-0.7,0-1.5,0-2.2,0.2c-2.6,0.6-3.7,2.4-3.7,5.5c0,6.9,0.1,13.8,0.1,20.7
			c0,0.4,0,0.8,0,1.2c0.1,3.3,1.2,4.6,4.4,4.8c3.2,0.2,6.3,0.1,9.5,0.1c11.7,0,23.4-0.1,35.2-0.1c1.5,0,3.1,0.1,4.6,0.2
			c3.7,0.3,4.9,1.6,5,5.3c0,5.2,0,10.3,0,15.5c0,4-1.6,5.7-5.7,6.2c-0.9,0.1-1.8,0.1-2.7,0.1c-14.5,0-29.1,0-43.6-0.1
			c-1.3,0-2.6,0-3.9,0.1c-1.1,0-2.4,1.4-2.5,2.7c-0.1,1.1-0.2,2.2-0.2,3.3c-0.1,6.6-0.1,13.1-0.1,19.7c0,0.4,0,0.8,0,1.2
			c0.1,3.5,1.4,4.7,4.9,4.7c9.8,0,19.7,0,29.5,0c1.1,0,2.3,0.2,3.4,0.5c1.9,0.5,3,1.9,3,3.9c0.2,5.9,0.3,11.8,0.5,17.7
			c0.1,3.7-1.8,5.8-5.5,6c-3.9,0.1-7.8,0-11.8,0c-13.8,0-27.6,0-41.4-0.1c-2.5,0-5-0.5-7.5-1c-1.6-0.3-2.7-1.6-3-3.3
			c-0.3-1.6-0.6-3.2-0.6-4.9C289.6,281.2,289.6,259.6,289.6,238z"/>
		<path class="st1" d="M558.4,209.4c-1.2,0.1-2.9,0.2-4.6,0.3c-5.7,0.3-9.8-2-11.9-7.3c-2.8-6.9-8.2-9.6-15.2-9.5
			c-5.3,0.1-10,1.6-13.7,5.5c-3.8,4-5.1,8.9-4.1,14.4c1.3,7.3,6.1,10.8,12.8,12.2c5.5,1.2,11,1.8,16.5,3c13,2.9,23.3,9.5,29.2,21.8
			c3.6,7.4,4.3,15.4,3.8,23.5c-1.1,16-9.9,26.7-23.6,33.9c-5.3,2.8-11.1,4.3-17.1,4.2c-3.5,0-4.9-1.8-4.9-5.3c0-3.8,0-7.5-0.2-11.3
			c-0.2-5,1.2-9.1,6-11.2c1.7-0.7,3.5-1,5.2-1.7c4.2-1.8,6.2-5.3,6.8-9.6c0.7-4.9-0.1-9.5-3.4-13.4c-2.5-2.9-5.6-5-9.3-5.8
			c-4.7-1-9.5-1.6-14.2-2.5c-10.2-1.9-19.4-5.8-26.4-14c-4-4.8-6.5-10.3-8.1-16.3c-1.2-4.7-1.7-9.4-1.3-14.3
			c0.6-7.6,3.4-14.4,7.5-20.7c5.7-8.7,13.9-13.9,23.5-17.1c7.6-2.5,15.3-3.2,23.2-1.7c15.1,2.9,26.6,10.7,32.8,25.2
			c1.8,4.2,2.3,8.9,3.2,13.4c0.5,2.5-1.4,4.2-4.3,4.3c-1.3,0-2.6-0.1-3.9-0.1C561.4,209.4,560.2,209.4,558.4,209.4z"/>
		<path class="st1" d="M698.8,232.2c-2.2,6.1-4.2,11.7-6.2,17.4c-2.1,5.9-4.2,11.8-6.3,17.8c-2.7,7.7-5.4,15.4-8.1,23.1
			c-1.9,5.4-3.6,10.8-5.5,16.1c-1.3,3.6-4.3,5.6-8.1,5.7c-5.7,0-11.4,0-17.1,0c-0.7,0-1.5,0-2.2-0.1c-2.7-0.3-3.6-1.7-2.7-4.2
			c1.7-4.5,3.5-9,5.3-13.5c3.1-8.1,6.2-16.1,9.4-24.2c3.1-8,6.2-15.9,9.3-23.9c3.2-8.4,6.4-16.8,9.7-25.2
			c3.9-10.1,7.9-20.3,11.8-30.4c2.8-7.1,5.4-14.3,8.2-21.5c0.2-0.5,0.4-0.9,0.6-1.4c0.6-1,1.4-1.5,2.6-1.4c1.1,0.1,1.8,0.7,2.2,1.7
			c1.7,4.4,3.3,8.8,5,13.2c3.5,9,6.9,18,10.4,26.9c3.7,9.4,7.4,18.8,11,28.1c4,10.2,7.9,20.4,11.8,30.5c4,10.3,8,20.7,12,31
			c1.5,3.8,2.8,7.6,4.2,11.4c0.2,0.6,0.2,1.2,0.4,2.1c-1.9,0.2-3.7,0.6-5.5,0.7c-3.6,0.1-7.1,0.3-10.7,0.2c-3.3-0.1-6.5-0.6-9.8-0.8
			c-2.3-0.2-3.5-1.8-4.2-3.7c-2.1-5.7-4-11.4-6.1-17c-1.9-5.2-3.7-10.4-5.6-15.6c-1.9-5.4-3.8-10.8-5.8-16.2
			c-2.7-7.6-5.5-15.2-8.3-22.8C700.4,234.7,699.7,233.7,698.8,232.2z"/>
		<path class="st1" d="M434.6,232.6c-1.8,1.1-2.3,2.8-2.8,4.4c-2,5.6-3.8,11.2-5.8,16.8c-2.5,7.2-5,14.5-7.5,21.7
			c-2,5.8-4.1,11.7-6.1,17.5c-1.5,4.3-3,8.6-4.6,12.8c-0.5,1.4-1.3,2.7-2.2,3.8c-1.4,1.9-3.7,2.4-5.9,2.4
			c-6.9,0.1-13.8,0.1-20.7,0.1c-1.6,0-1.9-1.3-1.7-2.2c0.2-1.7,0.7-3.4,1.3-4.9c3.5-9,7-18.1,10.5-27.1c4.5-11.6,9.1-23.2,13.6-34.8
			c3.6-9.4,7.2-18.7,10.8-28.1c4.3-11.1,8.7-22.2,13-33.3c1.7-4.3,3.2-8.6,4.8-12.9c0.5-1.3,1.2-2.2,2.7-2.3c1.6-0.1,2.3,1,2.8,2.2
			c1.6,4.1,3,8.3,4.6,12.4c3.8,9.7,7.7,19.4,11.4,29.2c3.9,10,7.7,20,11.6,30c2.8,7.3,5.7,14.5,8.5,21.8c3,7.6,6,15.2,8.9,22.9
			c1.7,4.5,3.4,9.1,5.1,13.6c1.3,3.4,2.6,6.8,3.9,10.2c0.1,0.4,0.2,0.8,0.3,1.1c0.4,1,0,1.5-1,1.6c-2.4,0.2-4.8,0.6-7.3,0.7
			c-3.1,0.1-6.3,0.2-9.4,0c-3-0.2-5.9-0.7-8.8-1.2c-2-0.4-2.9-2.1-3.6-3.9c-2.2-6.1-4.4-12.2-6.5-18.3c-3.1-8.7-6.3-17.4-9.4-26.1
			c-2.7-7.5-5.3-15.1-8-22.6C436.5,237.6,435.6,235.2,434.6,232.6z"/>
		<path class="st1" d="M129.3,252.2c0,9.8,0,19.6,0,29.3c0,4.4,0.6,5,5,5.3c2,0.1,4.1,0,6.1,0.1c2.8,0.2,4.9,2,5,4.7
			c0.2,4.8,0.2,9.6-0.1,14.4c-0.2,3.6-2.6,5.7-6.2,6.1c-3,0.3-5.9,0.5-8.9,0.6c-13,0.1-26,0-39,0c-1.2,0-2.5-0.1-3.7-0.4
			c-2.4-0.6-3.5-1.7-3.5-4.1c-0.1-5.2-0.2-10.3,0.1-15.5c0.2-3.5,2.3-5.5,6.1-5.9c2.2-0.2,4.5-0.3,6.7-0.5c2.5-0.2,3.6-1.3,3.7-3.9
			c0.1-1.8,0.1-3.7,0.1-5.5c0-17.5,0-35,0-52.6c0-1.4,0.3-1.9,1.7-2c8.4-0.9,16.9-1.8,25.3-2.7c1.1-0.1,1.6,0.2,1.6,1.4
			C129.3,231.5,129.3,241.9,129.3,252.2C129.3,252.2,129.3,252.2,129.3,252.2z"/>
		<path class="st1" d="M639.5,262.5c0,1.9,0.1,3.7,0,5.4c-0.5,5.8-0.9,11.5-2.8,17.1c-3.1,9-8.7,15.9-17,20.6
			c-6.6,3.7-13.8,5.6-21.3,6.1c-5,0.3-10,0.4-15,0.5c-0.6,0-1.3,0-1.9-0.1c-4-0.4-5.9-2.5-5.9-6.4c0-4.8,0-9.5-0.1-14.3
			c-0.1-4.3,2-6.7,6.4-6.9c4.9-0.2,9.8-0.2,14.7-0.4c3.5-0.1,6.7-1.3,9.5-3.5c0.3-0.2,0.7-0.5,0.9-0.8c1.3-2.7,4-3.4,6.5-4.3
			c8.1-3,15.9-6.8,23.3-11.4C637.7,263.6,638.5,263.1,639.5,262.5z"/>
		<path class="st1" d="M611,265.6c0-1.3,0-2.4,0-3.5c0-12.7,0.1-25.3,0.1-38c0-1.6,0-3.2,0.3-4.7c0.3-2,1.8-3.1,3.7-3.4
			c1.8-0.3,3.7-0.2,5.5-0.2c4.6,0,9.2,0.1,13.8,0.1c3.8,0,5.1,1.3,5.1,5.1c0.1,9,0.2,18.1,0.3,27.1c0,1.6-0.5,2.5-1.8,3.4
			c-8.1,5.6-16.8,10.1-26,13.9C611.8,265.5,611.5,265.5,611,265.6z"/>
		<path class="st1" d="M342.2,344.9c4.2-3.1,8.5-4.1,13.4-3.2c5,0.9,9.6,5.5,9.8,10.6c0.3,6.9,0.2,13.8,0.3,20.7
			c0,0.8-0.3,1.2-1.1,1.2c-2.3,0-4.7,0-7,0c-1.1,0-1.3-0.4-1.3-1.4c0-5.2,0.1-10.3,0-15.5c0-2.5-0.3-4.8-2.6-6.5
			c-3.5-2.6-9.8-0.6-10.9,3.6c-0.3,1.3-0.5,2.6-0.5,3.9c-0.1,4.8-0.1,9.5,0,14.3c0,1.2-0.3,1.6-1.5,1.5c-2.2-0.1-4.4-0.1-6.6,0
			c-1.1,0-1.6-0.3-1.6-1.5c0-13.8,0-27.6,0-41.4c0-1.1,0.4-1.5,1.5-1.5c2.2,0,4.5,0.1,6.7,0c1.1,0,1.5,0.3,1.5,1.4
			c-0.1,4.3,0,8.5,0,12.8C342.2,344.2,342.2,344.4,342.2,344.9z"/>
		<path class="st1" d="M439.2,340.2c0,3.4,0,6.7,0,9.9c0,1.1,0.8,0.9,1.5,0.9c5.4,0,10.7,0,16.1,0c1.4,0,1.7,0.4,1.7,1.7
			c-0.1,1.6-0.1,3.2,0,4.8c0.1,1.3-0.4,1.6-1.6,1.6c-5.3-0.1-10.6,0-15.9-0.1c-1.3,0-1.7,0.3-1.7,1.7c0.1,4,0,8,0.1,12.1
			c0,1.1-0.3,1.5-1.4,1.5c-2.4-0.1-4.9,0-7.3,0c-0.9,0-1.3-0.3-1.3-1.3c0-13.1,0-26.2,0-39.3c0-1,0.4-1.3,1.3-1.3
			c9.8,0,19.6,0,29.3,0c0.8,0,1.1,0.3,1.1,1.2c0,1.8-0.1,3.6,0,5.4c0.1,1.3-0.5,1.5-1.6,1.5c-6.2,0-12.3,0-18.5,0
			C440.4,340.2,439.8,340.2,439.2,340.2z"/>
		<path class="st1" d="M623.2,364c1.5,1.6,2.9,3.1,4.4,4.7c0.6,0.6,0.3,1.1-0.3,1.6c-2.6,2.5-5.8,3.8-9.3,4.2
			c-6.7,0.8-12.8-0.5-17.6-5.7c-3.7-4-4.5-8.9-3.6-14c1.2-6.8,5.7-10.9,12-12.6c6.7-1.8,13.7-0.5,18.7,6.1c2.5,3.2,3.1,7.1,2.9,11.1
			c-0.1,1.2-0.6,1.6-1.8,1.6c-7,0-14,0-21,0c-1.6,0-1.7,0.1-1,1.6c1.3,2.8,3.6,4.1,6.5,4.5C617.3,367.3,619.6,366.7,623.2,364z
			 M621.4,355c-0.9-3.8-3.4-6-6.9-6.3c-3.6-0.3-6.7,1.5-8.1,4.6c-0.7,1.5-0.4,1.8,1.2,1.8c4.1,0,8.1,0,12.2,0
			C620.3,355.1,620.8,355,621.4,355z"/>
		<path class="st1" d="M209.6,364c1.5,1.6,2.9,3.1,4.3,4.6c0.6,0.6,0.6,1.1-0.2,1.7c-4.4,3.9-9.7,4.8-15.3,4.2
			c-4.4-0.5-8.3-2.2-11.4-5.4c-5.5-5.7-5.7-15.7-0.5-21.6c2.3-2.6,5.1-4.4,8.3-5.3c7.7-2.1,16.9,0.2,20.6,8.9
			c1.1,2.6,1.5,5.3,1.3,8.1c-0.1,1.2-0.6,1.6-1.8,1.6c-7,0-14,0-21,0c-1.6,0-1.8,0.3-1.1,1.7c1.3,2.5,3.4,4,6.2,4.3
			C203.6,367.3,205.7,366.8,209.6,364z M207.7,354.9c-0.7-3.6-3.3-6-6.7-6.3c-3.7-0.3-7.2,1.8-8.3,4.9c-0.4,1.1-0.1,1.5,1.1,1.5
			c4.2-0.1,8.4,0,12.6,0C206.8,355.1,207.2,355,207.7,354.9z"/>
		<path class="st1" d="M381.5,360.8c0.3,2.6,1.8,4.3,3.8,5.1c4.6,1.9,9.1,1.5,13.2-2c1.5,1.6,3,3.3,4.5,4.9c0.6,0.7,0.1,1.1-0.4,1.6
			c-2.9,2.6-6.3,3.8-10.1,4.2c-4.8,0.4-9.4-0.3-13.5-3c-4.2-2.8-6.7-6.8-7.1-11.9c-0.5-5.8,1.3-10.7,5.9-14.3
			c2.4-1.9,5.1-3.1,8.2-3.6c3.7-0.6,7.1-0.2,10.4,1.2c6.8,3,9.8,9.4,9.4,16.4c-0.1,1.1-0.6,1.5-1.7,1.5c-6.9,0-13.9,0-20.8,0
			C382.6,360.8,382.2,360.8,381.5,360.8z M396.6,355c-0.4-3.6-3.3-5.9-6.7-6.3c-3.7-0.4-7,1.6-8.2,4.8c-0.5,1.3-0.3,1.6,1.1,1.6
			c4.2,0,8.3,0,12.5,0C395.6,355.1,396.1,355,396.6,355z"/>
		<path class="st1" d="M118.8,345.6c2.8-2.6,5.8-3.8,9.1-4.1c5.7-0.5,11.5,1.8,13.6,7.4c0.7,1.9,1.1,4,1.2,6
			c0.2,5.9,0,11.8,0.1,17.7c0,1.3-0.4,1.6-1.6,1.6c-2.1-0.1-4.2-0.1-6.3,0c-1.4,0.1-1.7-0.5-1.6-1.7c0.1-5.2,0.1-10.3,0-15.5
			c0-2.3-0.4-4.4-2.3-6c-2.9-2.5-10.2-1.4-11.2,3.7c-0.2,1.3-0.5,2.5-0.5,3.8c-0.1,4.7-0.1,9.3,0,14c0,1.4-0.4,1.8-1.8,1.7
			c-2.1-0.1-4.3-0.1-6.4,0c-1.1,0-1.5-0.4-1.5-1.5c0-9.7,0-19.5,0-29.2c0-1.2,0.4-1.7,1.6-1.7c1.9,0.1,3.8,0.1,5.7,0
			c1.5-0.1,2,0.4,1.8,1.9C118.8,344.2,118.8,344.7,118.8,345.6z"/>
		<path class="st1" d="M620.6,421.1c0.7-2.1,1.4-4.1,2.1-6c3.2-9.3,6.5-18.7,9.7-28c0.3-0.9,0.8-1.3,1.8-1.2c0.4,0.1,0.9,0.1,1.3,0
			c1.2-0.2,1.8,0.3,2.1,1.5c1,3.3,2.1,6.7,3.2,10c1.7,4.9,3.5,9.8,5.2,14.6c0.9,2.6,1.7,5.2,2.6,7.7c0.2,0.5,0.4,1.1,0.8,1.9
			c1.1-3.2,2.2-6.1,3.1-9c2.7-8.1,5.5-16.2,8.2-24.3c0.1-0.3,0.2-0.6,0.3-0.9c0.2-1.2,0.9-1.7,2.1-1.6c0.9,0.1,1.8,0,2.8,0
			c-0.7,2.2-1.3,4.2-2,6.1c-2.3,6.9-4.7,13.8-7,20.6c-1.6,4.8-3.2,9.6-4.8,14.4c0,0.1,0,0.3-0.1,0.3c-1.4,0.2-2.7,0.5-4.1,0.5
			c-0.4,0-1.1-0.5-1.2-1c-2.6-7.6-5.2-15.2-7.8-22.8c-1.2-3.6-2.5-7.2-3.9-11c-0.3,0.4-0.5,0.5-0.6,0.7c-2.6,7.6-5.2,15.2-7.9,22.9
			c-1.2,3.5-2.4,6.9-3.6,10.3c-0.1,0.4-0.6,0.8-1,0.9c-1.1,0.1-2.2,0.2-3.3,0c-0.4-0.1-1-0.6-1.2-1.1c-3.6-10.5-7.1-21.1-10.7-31.6
			c-1-2.9-1.9-5.9-3-9.2c1.5,0,2.9,0,4.2,0c0.3,0,0.6,0.5,0.7,0.8c1,2.8,1.9,5.7,2.9,8.5c0.9,2.7,1.9,5.3,2.8,8
			c1.3,3.8,2.5,7.5,3.8,11.3c0.7,2,1.3,3.9,1.9,5.9C620.1,420.7,620.3,420.8,620.6,421.1z"/>
		<path class="st1" d="M231.9,345.4c4.2-3.6,8.6-4.6,13.7-3.7c4.6,0.8,8.8,4.6,9.6,9.2c0.4,2.2,0.5,4.4,0.6,6.6
			c0.1,5.1,0,10.1,0,15.2c0,1.1-0.3,1.5-1.5,1.4c-2.2-0.1-4.4-0.1-6.6,0c-1.2,0-1.6-0.3-1.6-1.6c0.1-5.1,0.1-10.1,0-15.2
			c0-1.3-0.1-2.6-0.5-3.8c-1.2-3.9-5-4.4-8-3.6c-3.5,0.9-5.1,3-5.2,6.7c-0.1,5.3-0.1,10.5,0,15.8c0,1.4-0.4,1.8-1.8,1.8
			c-2.2-0.1-4.4-0.1-6.6,0c-1,0-1.3-0.3-1.3-1.3c0-9.9,0-19.8,0-29.6c0-1.1,0.5-1.4,1.5-1.4c1.9,0.1,3.9,0.1,5.8,0
			c1.5-0.1,2,0.4,1.8,1.9C231.9,344.2,231.9,344.7,231.9,345.4z"/>
		<path class="st1" d="M556.1,371c-1.4,0.9-2.5,1.7-3.7,2.3c-5.3,2.7-13.8,1.4-17.4-3.8c-2-2.9-2.5-6.2-2.5-9.6c0-5.5,0-11,0-16.5
			c0-1.2,0.5-1.6,1.6-1.5c2.1,0.1,4.2,0.1,6.3,0c1.2-0.1,1.6,0.4,1.6,1.6c-0.1,5-0.1,9.9,0,14.9c0,2.3,0.2,4.6,1.9,6.4
			c2.6,2.7,8.4,2,10.4-1.1c1.2-1.9,1.5-4.1,1.5-6.3c0.1-4.4,0-8.8,0-13.3c0-2.2,0-2.2,2.2-2.2c1.9,0,3.9,0,5.8,0
			c1,0,1.3,0.3,1.3,1.3c0,10,0,20,0,29.9c0,0.9-0.4,1.1-1.2,1.1c-2,0-4-0.1-6,0c-1.5,0.1-2.2-0.4-1.9-1.9
			C556.2,372,556.1,371.6,556.1,371z"/>
		<path class="st1" d="M489.3,370.7c-2.2,2.1-4.4,3.2-7,3.7c-5.5,1-12.8-0.7-15.3-7.1c-0.8-1.9-1.1-4.1-1.2-6.2
			c-0.2-5.8,0-11.6-0.1-17.4c0-1.3,0.3-1.9,1.8-1.8c2,0.1,4.1,0.1,6.1,0c1.2,0,1.6,0.4,1.5,1.5c0,4.8-0.1,9.5,0,14.3
			c0,1.6,0.2,3.3,0.6,4.9c0.4,1.8,1.7,3.2,3.5,3.5c4.9,1.1,9.1-0.6,9.4-6.4c0.3-5.2,0.2-10.5,0.2-15.8c0-2,0-2,2.1-2c2,0,4,0.1,6,0
			c1.1,0,1.5,0.4,1.5,1.5c0,9.9,0,19.8,0,29.6c0,1-0.4,1.3-1.3,1.2c-2,0-4.1-0.1-6.1,0c-1.3,0.1-1.9-0.4-1.7-1.7
			C489.4,372,489.3,371.6,489.3,370.7z"/>
		<path class="st1" d="M432.4,406.1c1.1,0.5,2,0.9,2.9,1.3c6.1,2.9,6.6,11.4,3.2,15.6c-2.9,3.5-6.9,4.6-11.1,4.7
			c-6.8,0.2-13.7,0.1-20.6,0.1c-1.1,0-1.3-0.4-1.3-1.4c0-13.1,0-26.1,0-39.2c0-1.1,0.4-1.4,1.4-1.4c6.2,0,12.3,0,18.5,0.1
			c3.4,0.1,6.7,0.9,9.5,3c5.4,4.2,4.6,13.2-1.3,16.6C433.1,405.7,432.9,405.8,432.4,406.1z M410.1,424c4.9,0,9.6,0.1,14.2,0
			c2.4-0.1,4.9-0.5,7.2-1.1c2.1-0.5,3.6-2.1,4-4.3c0.6-2.8,0.6-5.6-1.9-7.6c-2.3-1.9-5.1-2.3-8-2.3c-4.8,0-9.6,0-14.4,0
			c-1,0-1.2,0.4-1.2,1.3c0,4.1,0,8.1,0,12.2C410.1,422.6,410.1,423.2,410.1,424z M410.1,389.7c0,4.8,0,9.5,0,14.1
			c0,1,0.7,0.9,1.3,0.9c4,0,7.9,0.1,11.9,0c2.1-0.1,4.4-0.2,6.2-1c3.3-1.5,4.5-3.8,4.1-7.3c-0.3-3.2-2.8-5.6-6.2-6
			c-2.2-0.3-4.3-0.5-6.5-0.5C417.4,389.6,413.9,389.7,410.1,389.7z"/>
		<path class="st1" d="M657.7,191.3c2.1,2.1,4.2,3.9,6,5.9c3.4,3.8,4.9,8.5,5.6,13.4c1.6,11.2-2.2,20.8-8.8,29.5
			c-7.9,10.4-18.2,18-29.6,24.1c-5.4,2.9-11,5.6-16.7,7.9c-9.2,3.8-18.7,6.4-28.5,8c-1.1,0.2-1.7-0.2-1.9-1.3c0-0.3,0-0.6-0.1-0.9
			c-0.4-1.5,0.2-2.1,1.7-2.3c15.9-2.5,30.8-8.1,44.8-16c8.2-4.6,15.8-10.1,22.3-16.9c5.1-5.3,9.2-11.2,11.4-18.2
			c2.4-7.8,2-15.5-2.1-22.7c-1.3-2.2-3.6-3.9-5.5-5.7c-0.8-0.7-0.9-1.1-0.3-1.9C656.4,193.5,656.9,192.6,657.7,191.3z"/>
		<path class="st1" d="M296.2,434.8c2-3.2,1.9-3.2,4.8-1.6c5,2.8,10.3,3.3,15.8,1.5c1.8-0.6,3.3-2,4.1-3.7c1.4-3,1.5-6.3,1.2-10
			c-4.1,4.9-9.3,6.2-15,5.4c-4.1-0.6-7.6-2.6-10.1-6c-4.2-5.7-4-15.4,2.4-20.8c4.9-4.1,16.2-6.1,22.9,2.1c0-1.5,0-2.7,0-4
			c0-1,0.3-1.4,1.4-1.4c2.9-0.1,2.9-0.1,2.9,2.8c0,8.5,0.1,17,0,25.5c0,4.3-0.9,8.3-4.2,11.4c-2.4,2.2-5.2,3.2-8.3,3.5
			c-5.4,0.6-10.7-0.2-15.5-2.9C297.7,436.1,297,435.4,296.2,434.8z M322.3,411.3c0-6.6-5-11.4-11.9-11.4c-6.9,0-11.8,4.8-11.7,11.5
			c0.1,7.1,4.9,11.2,11.7,11.3C317.9,422.8,322.3,417.7,322.3,411.3z"/>
		<path class="st1" d="M164.2,363.5c0.5-1.2,0.9-2,1.3-2.9c2.5-5.9,4.9-11.8,7.4-17.6c0.2-0.5,0.8-1,1.2-1.1c2.7-0.1,5.3,0,8.3,0
			c-0.9,2.3-1.8,4.3-2.6,6.3c-3.1,7.4-6.2,14.8-9.3,22.2c0,0.1-0.1,0.2-0.1,0.3c-0.7,3-2.6,3.9-5.5,3.5c-1.4-0.2-2.9-0.1-4.3,0
			c-1.2,0.1-1.7-0.5-2.1-1.5c-3.3-7.9-6.6-15.8-10-23.8c-0.8-2-1.7-3.9-2.5-5.9c-0.3-0.8-0.1-1.3,0.8-1.3c2.5,0,5.1-0.1,7.6,0.1
			c0.5,0,1.2,0.8,1.4,1.3c2.7,6.4,5.3,12.9,7.9,19.3C163.9,362.8,164,363,164.2,363.5z"/>
		<path class="st1" d="M282.3,366c0.8,2.1,1.6,4,2.3,5.9c0.4,1.2-0.8,1.4-1.5,1.6c-3.1,1.2-6.3,1.5-9.6,0.7c-3.4-0.8-6-2.5-7.4-5.8
			c-0.6-1.5-0.9-3.3-1-4.9c-0.1-4,0-7.9-0.1-11.9c0-0.5-0.1-1.1-0.1-1.7c-1.2,0-2.3,0-3.4,0c-1,0.1-1.5-0.3-1.4-1.4
			c0-1.6,0-3.2,0-4.8c0-1,0.4-1.3,1.3-1.3c1.2,0,2.7,0.2,3.3-0.4c0.6-0.6,0.2-2.2,0.2-3.3c0-4.1,0-4.1,4.1-4.1c1.4,0,2.8,0,4.2,0
			c1,0,1.3,0.4,1.3,1.3c0,1.7,0,3.5,0,5.2c0,1,0.3,1.3,1.3,1.3c1.7-0.1,3.5,0,5.2,0c1,0,1.5,0.3,1.4,1.3c0,1.6,0,3.3,0,4.9
			c0,0.9-0.4,1.2-1.3,1.2c-1.7,0-3.5,0-5.2,0c-1.1-0.1-1.5,0.3-1.5,1.4c0,3.8,0,7.5,0,11.3c0,3.7,2.7,5.4,6.2,4
			C281.3,366.5,281.7,366.3,282.3,366z"/>
		<path class="st1" d="M307.9,358.2c0-2.3,0-4.7,0-7c0-1-0.4-1.4-1.3-1.3c0,0-0.1,0-0.1,0c-3.5-0.1-3.5-0.1-3.5-3.7
			c0-3.6,0-3.6,3.6-3.7c1,0,1.4-0.3,1.4-1.4c-0.1-1.6,0-3.3,0-4.9c-0.1-1.3,0.4-1.6,1.7-1.6c2,0.1,4.1,0.1,6.1,0
			c1.4-0.1,1.8,0.5,1.7,1.8c-0.1,1.5,0,3.1,0,4.6c-0.1,1.1,0.4,1.5,1.5,1.4c1.7-0.1,3.4,0,5.1,0c1.2,0,1.6,0.4,1.6,1.6
			c-0.1,1.5-0.1,3,0,4.5c0,1.1-0.4,1.4-1.4,1.4c-1.7,0-3.5,0-5.2,0c-1,0-1.5,0.2-1.5,1.3c0,3.9,0,7.7,0,11.6
			c0.1,3.5,2.8,5.2,6.3,3.7c1.3-0.6,1.8-0.2,2.1,1c0.4,1.2,0.9,2.4,1.4,3.5c0.5,1.1,0.2,1.8-0.9,2.2c-5.2,2-10.2,2-14.8-1.3
			c-2.3-1.6-3.3-4.1-3.4-6.8c-0.1-2.3,0-4.7,0-7C308,358.2,308,358.2,307.9,358.2z"/>
		<path class="st1" d="M517.4,349.9c0,0.8,0,1.6,0,2.3c0,3.4,0.1,6.8,0,10.1c-0.2,4.7,3.4,5.4,6.5,4.1c1.1-0.4,1.4-0.2,1.7,0.7
			c0.5,1.5,1.1,2.9,1.7,4.4c0.4,1-0.2,1.4-0.9,1.7c-2.7,1.3-5.5,1.6-8.4,1.3c-4.4-0.5-8-2.3-9.4-6.8c-0.6-1.8-0.8-3.7-0.8-5.5
			c-0.1-3.6-0.1-7.1,0-10.7c0-1.1-0.2-1.7-1.6-1.7c-3.3,0.1-3.3,0-3.3-3.4c0-3.8,0-3.8,3.7-3.9c0.9,0,1.2-0.3,1.2-1.2
			c0-1.7,0-3.5,0-5.2c0-1,0.4-1.4,1.4-1.4c2.3,0,4.6,0,6.9,0c1,0,1.3,0.3,1.3,1.3c0,1.8,0,3.6,0,5.4c0,0.9,0.2,1.2,1.2,1.2
			c1.8-0.1,3.6,0,5.4,0c1,0,1.5,0.3,1.4,1.4c0,1.6,0,3.2,0,4.8c0,1-0.4,1.3-1.4,1.3C521.9,349.9,519.8,349.9,517.4,349.9z"/>
		<path class="st1" d="M641.2,149.5c1.8-0.2,3.3-0.8,4.6-0.5c1.2,0.3,2.3,1.2,3.2,2.2c3.8,3.9,6.7,8.4,8.2,13.6
			c3.3,11.7,1,22.2-6.9,31.4c-4,4.7-9,8-14.9,9.6c-11.7,3.3-22.3,1.1-31.4-6.9c-8.3-7.3-11.8-16.7-11-27.6c0.3-4.2,1.6-8.1,3.5-11.9
			c0.6-1.2,1.4-2.1,2.9-2.2c0.9-0.1,1.8-0.4,3.2-0.8c-5.5,7.9-7.4,16.1-5.1,25.2c2.3,9.2,7.8,15.7,16.2,19.6
			c12.7,5.8,27.9,1.9,36.2-9.9c3.1-4.4,4.7-9.4,5.1-14.7c0.4-5.3-0.6-10.5-3-15.3C649.6,156.5,646.2,152.6,641.2,149.5z"/>
		<path class="st1" d="M771.6,401.6c0-0.5,0.1-0.8,0.1-1.2c0-5.1,0-10.2,0-15.3c0-1.3,0.2-1.8,1.6-1.7c3.1,0.1,2.8-0.4,2.8,2.8
			c0,13.3,0,26.6,0,39.9c0,1.5-0.4,2-1.8,1.8c-0.5-0.1-1.1,0.1-1.5-0.1c-0.4-0.2-1-0.7-1-1c-0.1-1.4,0-2.8,0-4.5
			c-0.5,0.5-0.8,0.7-1,1c-4.9,6.1-14.5,6.1-20.2,2c-4.5-3.3-6.4-7.8-6.4-13.2c0-6,2.3-10.9,7.5-13.9c6.2-3.6,14.8-2.8,19.4,3.2
			C771.2,401.4,771.3,401.5,771.6,401.6z M748.5,412.1c0.2,1.2,0.3,2.4,0.6,3.6c2.2,8.9,12.7,10.5,18.2,6.1c4.2-3.4,5-8,4-13.1
			c-1.5-7.2-9.3-10.5-15.6-7.9C750.7,402.8,748.7,406.8,748.5,412.1z"/>
		<path class="st1" d="M205,401.5c3.7-4.1,8.2-5.8,13.5-5.5c6.8,0.5,12.9,5.9,13.9,12.6c0.7,5,0.2,9.9-3.4,14
			c-2.6,3-5.7,4.7-9.7,5.2c-4,0.6-7.7-0.1-11-2.5c-1.1-0.8-2-1.8-3.3-3c0,0.8,0,1.3,0,1.7c0,4.5,0,8.9,0,13.4c0,1.3-0.2,1.9-1.7,1.8
			c-2.9-0.1-2.7,0.4-2.7-2.8c0-12.9,0-25.7,0-38.6c0-0.6,0.3-1.6,0.5-1.6c1.2-0.1,2.3,0,3.5,0.2c0.1,0,0.2,0.8,0.3,1.2
			C205.1,399.1,205,400.3,205,401.5z M228.2,412.2c0-0.2,0-0.5,0-0.7c-0.1-4.5-2-8.1-6-10.2c-3.9-2-8-1.9-11.8,0.4
			c-4.2,2.6-5.6,6.7-5.3,11.4c0.5,8.2,7.2,12.7,14.9,10.6C225.3,422.3,228.2,418,228.2,412.2z"/>
		<path class="st1" d="M664.4,140.3c-1.6-1.3-2.9-2.4-4.2-3.5c-1.6-1.3-3.2-2.5-4.8-3.8c-0.8-0.6-1.2-1.4-0.6-2.3
			c0.6-0.9,1.5-1.1,2.4-0.3c2.9,2.4,5.9,4.7,8.8,7.1c1.2,0.9,2.3,1.9,3.5,2.8c1,0.8,1,1.8,0.2,2.7c-3.2,4-6.4,8-9.7,12
			c-0.6,0.8-1.4,1.1-2.3,0.4c-0.8-0.7-1-1.5-0.3-2.3c2-2.5,3.9-5,5.9-7.4c0.4-0.5,0.8-1,1.3-1.7c-0.7-0.1-1-0.2-1.4-0.1
			c-8.4,1.1-16.9,2.2-25.3,3.5c-8.8,1.3-17.5,2.7-26.2,4.4c-9.2,1.8-18.5,3.6-27.3,7.1c-2,0.8-3.8,1.9-5.6,3c-1.3,0.9-1.3,1.7-0.2,3
			c1.8,2.1,4.4,3,6.9,3.9c1.3,0.5,2.5,0.8,3.8,1.2c0,1.1,0,2,0,3.2c-4.7-1.2-9.2-2.3-12.8-5.7c-3-2.9-2.8-6,0.6-8.4
			c3.6-2.7,7.7-3.9,11.9-5.2c11.3-3.4,22.9-5.6,34.5-7.4c13.1-2,26.3-3.8,39.4-5.7C663.4,140.6,663.6,140.5,664.4,140.3z"/>
		<path class="st1" d="M87.4,419.3c0.5,0.3,0.9,0.7,1.4,1c4.3,3.2,9.2,4.1,14.5,3.8c2.5-0.2,4.8-0.7,6.7-2.3
			c3.4-2.9,2.9-8.3-1.1-10.1c-2.8-1.3-5.9-2.1-8.8-2.9c-3.6-1-7.2-1.8-10.2-4.2c-5.1-4-4-13,1.6-16.3c6-3.6,12.2-3.3,18.6-1.4
			c1.4,0.4,2.7,1.1,4,1.7c0.9,0.4,1.2,0.9,0.7,2c-1.1,2.2-1,2.2-3.3,1.1c-4.7-2.2-9.7-2.8-14.8-1.4c-5.3,1.5-6.4,6.4-4.6,9.8
			c1.3,2.3,3.8,3,6.2,3.8c4,1.2,8.1,2.2,12,3.7c1.8,0.7,3.7,2.1,4.9,3.6c3.3,4.1,2,10.5-2.3,13.9c-3.2,2.5-6.9,3.2-10.7,3.3
			c-4.9,0.1-9.7-0.7-13.9-3.5C84.7,422.4,85.2,423,87.4,419.3z"/>
		<path class="st1" d="M129.7,400.9c1.6-1.2,2.9-2.4,4.4-3.2c5.5-3,14-2.2,17.7,3c1.5,2.1,2.4,4.5,2.4,7.1
			c0.2,6.3,0.1,12.6,0.1,18.9c0,0.9-0.4,1.1-1.2,1.1c-4.1,0-3.3,0.4-3.3-3c0-4.8,0-9.6,0-14.5c0-2.5-0.3-4.9-1.8-6.9
			c-2-2.8-5-3.6-8.3-3.4c-6.7,0.5-10.1,4.3-10.1,11.4c-0.1,4.9-0.1,9.7,0,14.6c0,1.5-0.5,1.8-1.8,1.7c-3.3-0.1-2.8,0.1-2.8-2.8
			c0-13.2,0-26.4,0-39.6c0-2,0-2,2-2c0.4,0,0.8,0,1.2,0c1-0.1,1.4,0.4,1.4,1.4c0,4.8,0,9.6,0,14.5
			C129.7,399.7,129.7,400.2,129.7,400.9z"/>
		<path class="st1" d="M91,353.1c0-6.4,0-12.8,0-19.2c0-1.2,0.3-1.7,1.6-1.6c2.3,0.1,4.6,0.1,6.8,0c1,0,1.4,0.2,1.4,1.3
			c0,13.1,0,26.2,0,39.3c0,1-0.3,1.3-1.3,1.3c-2.4,0-4.8-0.1-7.1,0c-1.1,0-1.4-0.4-1.4-1.5C91,366.2,91,359.6,91,353.1z"/>
		<path class="st1" d="M582.7,345.2c2.1-1.1,3.9-2.2,5.9-3c1.3-0.5,2.8-0.6,4.2-0.7c0.3,0,0.9,0.5,0.9,0.8c0.1,2.3,0,4.7,0,7
			c0,0.9-0.6,0.9-1.3,1c-1.8,0.2-3.8,0.2-5.5,1c-3.1,1.4-3.8,4.4-3.8,7.5c-0.1,4.6-0.1,9.2,0,13.9c0,1.2-0.3,1.7-1.6,1.6
			c-2.2-0.1-4.4-0.1-6.6,0c-1,0-1.4-0.4-1.4-1.4c0-9.8,0-19.6,0-29.3c0-1.3,0.5-1.6,1.7-1.6c1.9,0.1,3.8,0.1,5.7,0
			c1.4-0.1,1.9,0.5,1.7,1.8C582.7,344.2,582.7,344.7,582.7,345.2z"/>
		<path class="st1" d="M450.7,413.5c0.3,3.8,1.9,6.8,5.1,8.7c4.7,2.9,11.9,2.6,16-1.4c0.6-0.6,1-0.5,1.6,0c2,2,2,2.2-0.3,3.9
			c-7.3,5.5-18.5,4.1-23.7-3c-5.6-7.6-3.9-20.9,6.9-24.8c10.8-4,21.2,3.9,20.7,15.3c0,1.2-0.8,1.1-1.6,1.1c-7.7,0-15.4,0-23.1,0
			C451.8,413.5,451.3,413.5,450.7,413.5z M461.6,410.1c3.2,0,6.3-0.1,9.5,0c1.4,0,1.7-0.5,1.4-1.7c-0.7-2.8-2.1-5.3-4.6-6.8
			c-6.9-4.4-15.3-0.8-17.1,7.2c-0.2,1.1,0.2,1.3,1.1,1.3C455.2,410.1,458.4,410.1,461.6,410.1z"/>
		<path class="st1" d="M533.2,413.6c0.4,3.5,1.7,6.2,4.5,8.2c2.7,1.9,5.8,2.5,9,2.3c3.3-0.2,6-1.6,8.4-4c0.6,0.7,1,1.4,1.6,1.9
			c0.8,0.8,0.6,1.3-0.1,1.9c-3.3,3.1-7.4,4.3-11.8,4.2c-5.2-0.1-9.6-2-12.8-6.2c-2.5-3.3-3.4-7-3.2-11c0.2-4.2,1.8-7.9,4.9-10.8
			c4.1-3.9,11-5,16.3-3c6.3,2.4,9.4,8.7,9.6,14.4c0.1,1.8-0.2,2-1.9,2c-7.6,0-15.2,0-22.8,0C534.3,413.5,533.8,413.6,533.2,413.6z
			 M555.1,410c0.1-0.3,0.1-0.4,0.1-0.6c0-0.2-0.1-0.5-0.1-0.7c-1.1-4.7-3.9-7.6-8.6-8.7c-5.8-1.3-12.2,2.9-13,8.7
			c-0.2,1.2,0.2,1.5,1.3,1.5c6.4,0,12.7,0,19.1,0C554.2,410.1,554.6,410.1,555.1,410z"/>
		<path class="st1" d="M185.2,424c-2,1.1-3.9,2.8-6.1,3.4c-4.8,1.3-9.6,1.3-13.5-2.4c-4.7-4.3-3-12.2,3.1-14.1
			c2.3-0.7,4.7-0.9,7.1-1.1c2.6-0.2,5.2-0.1,7.7,0c1.3,0,1.6-0.4,1.6-1.6c-0.1-3.9-1.8-6.8-4.9-7.7c-2.9-0.9-5.9-0.8-8.8,0.2
			c-1.7,0.6-3.2,1.4-4.8,2.3c-0.7,0.4-1,0.3-1.4-0.3c-1.6-2.2-1.6-2.7,0.8-4c5-2.7,10.3-3.5,15.8-2c4.3,1.2,7.4,4.9,7.6,9.9
			c0.2,6.7,0.1,13.4,0.1,20.1c0,0.4-0.6,1-1,1c-3.3,0.4-3.3,0.4-3.3-2.9C185.2,424.5,185.2,424.1,185.2,424z M178.2,413.3
			c0,0,0,0.1,0,0.1c-2,0-4-0.1-5.9,0c-3,0.2-4.9,2.4-4.9,5.3c0,2.9,1.6,4.6,5.2,5.5c7,1.8,12.6-2.7,12.5-9.7c0-1-0.4-1.3-1.3-1.3
			C181.9,413.4,180.1,413.3,178.2,413.3z"/>
		<path class="st1" d="M373.5,423.5c-1.1,1-1.9,1.8-2.7,2.4c-3.3,2.3-7,2.5-10.8,2c-2.8-0.4-5.2-1.5-7-3.8
			c-3.6-4.5-1.7-11.4,3.8-13.1c2.4-0.7,4.9-1,7.4-1.1c2.6-0.2,5.2-0.1,7.7,0c0.9,0,1.2-0.2,1.2-1.2c0.1-4.2-1.3-7.2-4.5-8
			c-2.2-0.6-4.5-0.6-6.7-0.5c-2.6,0.1-4.8,1.2-6.9,2.7c-0.8,0.6-1.2,0.4-1.7-0.4c-1.4-2.2-1.5-2.3,0.8-3.6c5.5-2.9,11.2-4,17.1-1.7
			c3.5,1.3,5.6,4.1,6.1,7.8c0.2,1.7,0.3,3.4,0.3,5c0,5.5,0,10.9,0,16.4c0,1-0.2,1.5-1.3,1.4c-3.5-0.1-2.9,0.2-2.9-2.8
			C373.5,424.6,373.5,424.3,373.5,423.5z M366.6,413.3c-1,0-2,0-3,0c-1,0-2.1,0-3.1,0.1c-2.6,0.3-4.5,1.9-4.9,4.4
			c-0.3,2.1,0.4,4.5,2.9,5.6c3.1,1.5,6.3,1.4,9.4,0.2c4.2-1.7,5.9-4.8,5.2-9.5c0-0.4-0.7-0.9-1.2-0.9
			C370.2,413.3,368.4,413.3,366.6,413.3z"/>
		<path class="st1" d="M699.3,412.1c0.2,8.8-6.6,16.1-16,16c-9.4,0-15.1-6.9-15.9-13.9c-1.3-11.9,7.7-18.2,15.9-18.3
			C692.1,395.9,699.6,402.7,699.3,412.1z M671.6,412.2c0.3,1.3,0.5,2.6,0.8,3.9c2.5,9.1,13.6,9.9,18.5,5.4c3.3-3,4.3-6.8,3.9-11.1
			c-0.9-8.3-8.3-12.2-15.5-9.8C674.4,402.2,671.8,406.5,671.6,412.2z"/>
		<path class="st1" d="M261.4,400.8c2.2-1.4,4.2-3,6.4-3.9c5.2-2.1,12.3-0.9,15.7,3.4c1.6,2.1,2.6,4.5,2.7,7.1
			c0.1,6.4,0.1,12.8,0.1,19.2c0,0.8-0.3,1.1-1.1,1.1c-3.3,0.2-3.3,0.2-3.3-3.1c0-5.1,0-10.1,0-15.2c0-2.3-0.6-4.5-2-6.4
			c-1.7-2.2-4.2-3-6.8-3c-5.2-0.2-9.4,2-10.9,7.4c-0.3,1.1-0.4,2.3-0.4,3.5c0,5-0.1,10,0,15c0,1.3-0.3,1.9-1.7,1.8
			c-3.3-0.1-2.8,0.2-2.8-2.8c0-9,0-18,0-26.9c0-0.6,0.3-1.6,0.5-1.6c1.1-0.1,2.2,0,3.3,0.1c0.2,0,0.3,0.8,0.3,1.2
			C261.4,398.9,261.4,399.9,261.4,400.8z"/>
		<path class="st1" d="M509.4,400c-1.5,0-2.8,0-4.1,0c-1.6,0.1-1.2-1.1-1.3-2c0-0.9-0.1-1.9,1.3-1.8c0.9,0.1,1.9-0.1,2.8,0
			c1.2,0.1,1.5-0.4,1.4-1.5c-0.1-1.3,0-2.7,0-4c-0.1-1,0.3-1.4,1.2-1.3c0,0,0.1,0,0.1,0c3-0.3,3.1-0.2,3.1,2.8c0,0.9,0.1,1.8,0,2.7
			c-0.1,1.1,0.4,1.4,1.4,1.4c2.2,0,4.4,0.1,6.6,0c1.6-0.1,1.6,0.7,1.7,1.9c0,1.3-0.2,1.9-1.7,1.9c-2.2-0.1-4.4,0-6.6,0
			c-0.9,0-1.3,0.3-1.3,1.3c0,5.7,0,11.4,0,17.1c0.1,5.1,4.2,7.5,8.8,5.1c0.6-0.3,1.3-1,1.6,0.1c0.3,1,1.9,1.9,0.2,3
			c-3.3,2.2-9.2,2-12.2-0.6c-1.9-1.6-2.8-3.8-2.8-6.2c-0.1-6-0.1-12-0.1-18C509.5,401.3,509.4,400.7,509.4,400z"/>
		<path class="st1" d="M486.2,389.7c4.2-0.8,4.4-0.7,4.4,3.3c0,1,0,2.1,0,3.3c2.7,0,5.3,0.1,7.8,0c1.7-0.1,1.7,0.7,1.7,2
			c0,1.3-0.2,1.9-1.7,1.8c-2.5-0.1-5.1,0-7.7,0c-0.1,0.4-0.2,0.8-0.2,1.2c0,5.9,0,11.8,0,17.7c0,3.5,1.8,5.3,5.4,5.2
			c1.5-0.1,2.9-0.6,4.8-1c0.3,0.5,0.8,1.3,1.1,2.2c0.1,0.2-0.2,0.8-0.4,1c-3.8,3.5-12.6,1.7-14.5-3.1c-0.5-1.1-0.7-2.4-0.7-3.6
			c-0.1-6-0.1-12,0-18c0-1.3-0.3-1.8-1.7-1.7c-0.7,0.1-1.4,0.1-2.1,0c-0.6-0.1-1.6-0.2-1.7-0.4c-0.2-0.9-0.2-1.8,0-2.8
			c0-0.2,0.7-0.4,1.1-0.5c0.9-0.1,1.8-0.1,2.7,0c1.5,0.2,1.8-0.5,1.7-1.8C486.1,393,486.2,391.4,486.2,389.7z"/>
		<path class="st1" d="M735.7,405.7c0,6.8,0,13.6,0,20.4c0,1.4-0.3,1.8-1.7,1.8c-3.2-0.1-2.7,0.2-2.7-2.7c0-13.3,0-26.5,0-39.8
			c0-2,0-2,1.9-2c0.2,0,0.5,0,0.7,0c1.4-0.2,1.8,0.3,1.8,1.7C735.6,392,735.7,398.8,735.7,405.7z"/>
		<path class="st1" d="M712.2,400.9c1.9-1.3,3.6-2.8,5.6-3.8c1.4-0.7,3.2-0.8,4.9-1.1c0.7-0.1,1.1,0.2,1.1,1c0,1,0,2.1,0,3.1
			c-1.5,0.1-2.7,0.1-3.9,0.4c-4.9,1.2-7.2,4.8-7.4,9.5c-0.2,5.3-0.1,10.6,0,15.9c0,1.4-0.4,2-1.8,1.7c0,0-0.1,0-0.1,0
			c-3,0-2.6,0.2-2.6-2.5c0-9,0-18.1,0-27.1c0-1.3,0.2-2,1.8-1.9c2.5,0.1,2.6,0,2.6,1.9C712.2,399.2,712.2,400.1,712.2,400.9z"/>
		<path class="st1" d="M572.5,401.4c0.4-0.6,0.8-1.2,1.3-1.7c2.5-2.3,5.5-3.6,8.9-3.7c0.8,0,1.2,0.3,1.2,1.1c0,3.7,0.3,3.1-2.9,3.3
			c-4,0.2-7.5,3.5-8.2,7.6c-0.3,1.7-0.4,3.5-0.4,5.3c-0.1,4.4-0.1,8.7,0,13.1c0,1.1-0.3,1.5-1.4,1.5c-3.6-0.1-3,0.3-3-3
			c0-8.8,0-17.7,0-26.5c0-0.7,0.3-1.8,0.6-1.9c1.1-0.2,2.2-0.1,3.4,0.1c0.2,0,0.3,0.7,0.3,1.1c0,1.2,0,2.5,0,3.7
			C572.3,401.3,572.4,401.4,572.5,401.4z"/>
		<path class="st1" d="M615.4,184.8c0.9,4.4,2,10.6,5,15.5c-10.9-2.9-17.6-9.6-20.6-20.6C604.7,182.8,610,183.7,615.4,184.8z"/>
		<path class="st1" d="M631.2,200.2c3.2-4.7,4-10.1,5.1-15.4c5.2-1.1,10.6-1.9,15.5-5.1c-1.2,5.3-3.6,9.7-7.3,13.4
			C640.8,196.7,636.5,199.1,631.2,200.2z"/>
		<path class="st1" d="M651.8,169.1c-4.9-3.2-10.3-4.1-15.3-5.1c-1.2-4.4-2.4-8.8-3.5-13.1c3.2-1.6,5.9,0.2,8.5,2.1
			c4.1,3,7.1,6.9,9,11.6C651,166,651.3,167.4,651.8,169.1z"/>
		<path class="st1" d="M115.2,190.4c5,0,9.9,0,14.9,0c0.9,0,1.8-0.2,1.8,1.2c0,1.1,0.1,2.1-1.6,2.2c-6.7,0.5-13.4,1.1-20.2,1.7
			c-3.5,0.3-6.9,0.6-10.3,1c-1.2,0.1-1.6-0.2-1.5-1.5c0.1-1.1,0.1-2.2,0-3.3c-0.1-1.2,0.4-1.4,1.5-1.4
			C104.9,190.4,110,190.4,115.2,190.4z"/>
		<path class="st1" d="M615.3,164c-5.3,1-10.6,1.9-15.4,5.1c0.9-4,2.6-7.5,4.9-10.7c1.6-2.3,3.6-3.5,6.4-3.8
			c2.2-0.2,4.3-0.8,6.6-1.2C616.9,157,616.1,160.5,615.3,164z"/>
		<path class="st1" d="M101,219.4c-1.4,0-2.5-0.9-2.6-2c-0.1-1,1.1-2.2,2.5-2.4c2.3-0.3,4.6-0.5,6.9-0.7c5-0.5,10-1.1,15.1-1.6
			c2.1-0.2,4.1-0.5,6.2-0.6c1.3-0.1,2.5,0.7,2.7,1.9c0.1,1-0.8,2.2-2,2.4c-2.8,0.4-5.6,0.7-8.4,1c-6.6,0.7-13.2,1.3-19.8,2
			C101.3,219.3,101.1,219.4,101,219.4z"/>
		<path class="st1" d="M101.6,205c-2,0.1-3.2-0.7-3.3-1.9c-0.1-1,1-2.2,2.4-2.4c1.9-0.3,3.7-0.4,5.6-0.6c6.7-0.7,13.3-1.3,20-2
			c0.9-0.1,1.8-0.3,2.7-0.4c1.4-0.1,2.5,0.7,2.7,1.8c0.2,1-0.8,2.3-2.1,2.4c-2.1,0.3-4.2,0.5-6.3,0.7
			C115.9,203.6,108.5,204.3,101.6,205z"/>
		<path class="st1" d="M245.6,412c0,4.7,0,9.4,0,14.1c0,1.2-0.2,1.7-1.5,1.7c-3.5-0.1-2.9,0.3-2.9-2.9c0-8.9,0-17.7,0-26.6
			c0-2,0-2,2-2c0.3,0,0.6,0,0.9,0c1.2-0.2,1.6,0.4,1.6,1.6C245.6,402.6,245.6,407.3,245.6,412z"/>
		<path class="st1" d="M639.9,374.7c-3.2,0-5.8-2.7-5.7-6.1c0-3.1,2.9-5.8,6-5.7c3.1,0.1,5.9,2.9,5.9,6
			C645.9,372.2,643.3,374.7,639.9,374.7z"/>
		<path class="st1" d="M640,353.3c-3.3,0-5.9-2.6-5.9-6c0-3.2,2.7-5.9,6-5.9c3.1,0,5.8,2.7,5.9,5.8C646,350.6,643.4,353.3,640,353.3
			z"/>
		<path class="st1" d="M129.2,206c0.1,0.2,0.7,0.5,0.8,0.9c0.1,0.8,0.2,1.6-1.1,1.8c-4.7,0.5-9.4,1-14.2,1.5
			c-4.5,0.5-9,0.9-13.4,1.3c-0.9,0.1-1.7,0.2-1.8-1.1c-0.1-1.2,0.4-1.5,1.5-1.6c4.9-0.4,9.8-1,14.8-1.5
			C120.1,206.9,124.4,206.5,129.2,206z"/>
		<path class="st1" d="M627.2,200.6c0-5.3,0-10.2,0-15.3c2,0,4,0,6.1,0C632.3,190.6,631.4,196,627.2,200.6z"/>
		<path class="st1" d="M614.9,166.9c0,2.1,0,4.1,0,6.1c-5,0-9.9,0-15.2,0C604,168.8,609.5,168.1,614.9,166.9z"/>
		<path class="st1" d="M651.5,173c-4.9,0-9.8,0-14.8,0c0-2,0-4,0-6.1C642,168,647.4,168.9,651.5,173z"/>
		<path class="st1" d="M636.7,175.8c5,0,9.8,0,15.1,0c-4.4,4.2-9.8,4.9-15.1,6.1C636.7,179.9,636.7,178,636.7,175.8z"/>
		<path class="st1" d="M600.3,175.9c4.8,0,9.6,0,14.6,0c0,2,0,4,0,6C609.7,180.8,604.3,180,600.3,175.9z"/>
		<path class="st1" d="M618.4,185.2c2,0,3.9,0,5.9,0c0,4.9,0,9.7,0,14.9C620.2,195.8,619.4,190.5,618.4,185.2z"/>
		<path class="st1" d="M627.1,163.4c0-3.7,0-7.3,0-10.8c0-0.4,0.5-0.9,0.9-1c0.6-0.1,1.5-0.8,1.9,0.3c0.8,2,1.6,4.1,2.2,6.2
			c0.5,1.7,0.9,3.5,1.3,5.4C631.3,163.4,629.3,163.4,627.1,163.4z"/>
		<path class="st1" d="M618.2,163.4c0.8-2.8,1.7-5.6,2.2-8.4c0.4-2.2,1.8-2.8,3.9-2.7c0,3.6,0,7.3,0,11.1
			C622.3,163.4,620.4,163.4,618.2,163.4z"/>
		<path class="st1" d="M627.2,173c0-2.3,0-4.4,0-6.6c1.8,0,3.5-0.1,5.2,0.1c0.5,0.1,1.3,1,1.4,1.5c0.2,1.6,0.1,3.3,0.1,5
			C631.7,173,629.5,173,627.2,173z"/>
		<path class="st1" d="M633.9,175.9c0,1.8,0.1,3.5,0,5.1c0,0.4-0.6,1.1-1,1.1c-1.8,0.3-3.7,0.4-5.7,0.6c0-2.4,0-4.6,0-6.9
			C629.4,175.9,631.6,175.9,633.9,175.9z"/>
		<path class="st1" d="M617.4,175.8c2.4,0,4.6,0,6.9,0c0,2.2,0,4.4,0,6.6c-1.7,0-3.5,0.1-5.2-0.1c-0.4,0-1-0.7-1.1-1.1
			C617.7,179.6,617.6,177.8,617.4,175.8z"/>
		<path class="st1" d="M624.4,166.3c0,2.2,0,4.4,0,6.6c-2.2,0-4.4,0-6.9,0c0.2-1.9,0.4-3.9,0.7-5.8c0.1-0.3,0.7-0.8,1-0.8
			C620.9,166.3,622.6,166.3,624.4,166.3z"/>
		<path class="st1" d="M243.4,389.6c-1.6,0-3.3-1.7-3.2-3.2c0.1-1.6,1.6-3,3.3-3c1.8,0,3.2,1.4,3.2,3
			C246.6,388.2,245.1,389.6,243.4,389.6z"/>
		<path class="st1" d="M610.4,145.4c6.5-3.5,13.4-4.6,20.7-3.2c-6.9,1.2-13.8,2.4-20.7,3.6C610.4,145.7,610.4,145.6,610.4,145.4z"/>
	</g>
</g>
</svg>
